#!OML:ASF I:\Actors\actors\Patient Classification 2\Patient 1\Session 1\actor1.ASF
:FULLY-SPECIFIED
:DEGREES
99
root -0.633847 18.7166 5.6868 5.03332 -2.59232 -0.442743
lowerback -2.29212 1.18745 -2.77322
upperback -3.74385 1.5971 -0.04703
thorax -2.63791 0.871934 1.50234
lowerneck -10.4177 -2.81087 -2.01852
upperneck 25.1446 -4.60292 4.01441
head 9.81382 -1.88897 1.21306
rclavicle 2.17421e-015 1.59028e-014
rhumerus -49.691 -1.90886 -86.1112
rradius 41.5133
rwrist 12.9103
rhand -7.67521 -40.9134
rfingers 7.12502
rthumb 18.2213 -70.0799
lclavicle 2.17421e-015 1.59028e-014
lhumerus -41.8324 2.29358 89.0589
lradius 35.2168
lwrist -7.56062
lhand -7.13738 -27.5569
lfingers 7.12502
lthumb 18.7387 1.5605
rfemur 2.05595 4.42342 13.3249
rtibia -1.59028e-015
rfoot -16.1032 -10.4783
rtoes -3.42617
lfemur -6.6103 -8.15102 -13.4539
ltibia 19.7475
lfoot -22.7681 13.8141
ltoes -55.2536
100
root -0.634341 18.7163 5.68702 5.04725 -2.59184 -0.470756
lowerback -2.30302 1.19604 -2.75123
upperback -3.74321 1.60895 -0.0399385
thorax -2.63121 0.877296 1.49756
lowerneck -10.4151 -2.81477 -2.02072
upperneck 25.1281 -4.6085 4.01983
head 9.80779 -1.89138 1.21466
rclavicle 3.32964e-015 5.96354e-016
rhumerus -49.687 -1.92659 -86.0906
rradius 41.5183
rwrist 12.893
rhand -7.57444 -40.8815
rfingers 7.12502
rthumb 18.3183 -70.039
lclavicle 3.32964e-015 5.96354e-016
lhumerus -41.8192 2.2938 89.06
lradius 35.2079
lwrist -7.59277
lhand -6.97813 -27.1649
lfingers 7.12502
lthumb 18.8919 1.93765
rfemur 2.04085 4.42422 13.3571
rtibia -9.54166e-015
rfoot -16.1164 -10.4656
rtoes -3.51613
lfemur -6.62799 -8.13888 -13.4185
ltibia 19.7587
lfoot -22.7618 13.7976
ltoes -55.24
101
root -0.634498 18.7165 5.68737 5.04881 -2.58031 -0.477504
lowerback -2.29435 1.19318 -2.75666
upperback -3.7492 1.60478 -0.0413813
thorax -2.6422 0.875536 1.49883
lowerneck -10.3963 -2.80544 -2.00618
upperneck 25.1153 -4.60242 4.03746
head 9.79947 -1.88569 1.21927
rclavicle -7.65321e-015 6.16232e-015
rhumerus -49.7062 -1.97191 -86.0716
rradius 41.5174
rwrist 12.9744
rhand -7.51441 -40.8291
rfingers 7.12502
rthumb 18.376 -69.9812
lclavicle -7.65321e-015 6.16232e-015
lhumerus -41.8418 2.27862 89.0545
lradius 35.2223
lwrist -7.59298
lhand -6.99432 -27.1559
lfingers 7.12502
lthumb 18.8763 1.94822
rfemur 2.04324 4.41331 13.3664
rtibia -6.36111e-015
rfoot -16.1145 -10.4648
rtoes -3.41383
lfemur -6.63447 -8.12841 -13.4076
ltibia 19.7683
lfoot -22.7391 13.7785
ltoes -55.2023
102
root -0.634491 18.7168 5.68778 5.05246 -2.58415 -0.478995
lowerback -2.29651 1.19105 -2.77122
upperback -3.75281 1.60212 -0.0366732
thorax -2.64521 0.874744 1.51181
lowerneck -10.3557 -2.77984 -2.00643
upperneck 25.0833 -4.57233 4.06664
head 9.77988 -1.86953 1.23346
rclavicle -8.94531e-015 1.31198e-014
rhumerus -49.7405 -1.98185 -86.062
rradius 41.534
rwrist 13.0464
rhand -7.53949 -40.86
rfingers 7.12502
rthumb 18.3519 -70.0143
lclavicle -8.94531e-015 1.31198e-014
lhumerus -41.8763 2.28768 89.0644
lradius 35.2534
lwrist -7.56912
lhand -7.00231 -27.1509
lfingers 7.12502
lthumb 18.8686 1.95394
rfemur 2.04001 4.41682 13.3673
rtibia 6.36111e-015
rfoot -16.1174 -10.4737
rtoes -3.37553
lfemur -6.63461 -8.1696 -13.4054
ltibia 19.7773
lfoot -22.7828 13.7774
ltoes -55.0592
103
root -0.634868 18.7164 5.68766 5.05681 -2.59726 -0.49287
lowerback -2.29451 1.19663 -2.75932
upperback -3.75385 1.6094 -0.0375609
thorax -2.64736 0.878091 1.50416
lowerneck -10.3044 -2.76527 -1.97797
upperneck 25.0318 -4.55309 4.05756
head 9.74998 -1.86037 1.22821
rclavicle 7.56624e-015 -9.74045e-015
rhumerus -49.7652 -1.94647 -86.0869
rradius 41.5523
rwrist 13.0037
rhand -7.59137 -40.9387
rfingers 7.12502
rthumb 18.302 -70.0977
lclavicle 7.56624e-015 -9.74045e-015
lhumerus -41.888 2.28029 89.0694
lradius 35.2681
lwrist -7.53009
lhand -7.01961 -27.1272
lfingers 7.12502
lthumb 18.852 1.97924
rfemur 2.03277 4.43079 13.3832
rtibia -4.77083e-015
rfoot -16.1164 -10.4687
rtoes -3.38299
lfemur -6.64012 -8.1341 -13.3878
ltibia 19.7801
lfoot -22.8173 13.7761
ltoes -55.1494
104
root -0.635232 18.7163 5.68801 5.06274 -2.5856 -0.504779
lowerback -2.29123 1.19362 -2.74853
upperback -3.75793 1.60509 -0.0411035
thorax -2.65275 0.875702 1.49436
lowerneck -10.2658 -2.76843 -1.9528
upperneck 24.9964 -4.55321 4.02593
head 9.72854 -1.86262 1.21329
rclavicle 8.57259e-016 -9.93923e-016
rhumerus -49.7747 -1.91682 -86.1087
rradius 41.5442
rwrist 12.9822
rhand -6.72831 -41.1749
rfingers 7.12502
rthumb 19.1321 -70.2539
lclavicle 8.57259e-016 -9.93923e-016
lhumerus -41.9014 2.27485 89.0597
lradius 35.2872
lwrist -7.51113
lhand -7.00696 -27.0703
lfingers 7.12502
lthumb 18.8641 2.03502
rfemur 2.03288 4.41989 13.401
rtibia -6.36111e-015
rfoot -16.0983 -10.4876
rtoes -3.43191
lfemur -6.6576 -8.03352 -13.3692
ltibia 19.7765
lfoot -22.7548 13.7709
ltoes -55.4127
105
root -0.635206 18.7161 5.68881 5.06971 -2.56002 -0.509528
lowerback -2.29061 1.19089 -2.73983
upperback -3.76591 1.60115 -0.047628
thorax -2.6607 0.873579 1.48267
lowerneck -10.2712 -2.77331 -1.97798
upperneck 25.0186 -4.56089 4.04543
head 9.73887 -1.86601 1.22347
rclavicle 1.62258e-014 -7.95139e-016
rhumerus -49.7839 -1.9518 -86.0878
rradius 41.5381
rwrist 13.0528
rhand -4.80143 -41.7424
rfingers 7.12502
rthumb 20.9842 -70.6273
lclavicle 1.62258e-014 -7.95139e-016
lhumerus -41.9183 2.28959 89.0471
lradius 35.2965
lwrist -7.52517
lhand -7.00602 -27.0361
lfingers 7.12502
lthumb 18.865 2.06908
rfemur 2.0374 4.39421 13.4098
rtibia 0
rfoot -16.0865 -10.5033
rtoes -3.41551
lfemur -6.67214 -8.01612 -13.3597
ltibia 19.7709
lfoot -22.6938 13.7711
ltoes -55.4461
106
root -0.635265 18.7155 5.6892 5.05732 -2.55304 -0.502302
lowerback -2.26583 1.20148 -2.73485
upperback -3.7708 1.61401 -0.0679188
thorax -2.67951 0.879832 1.45832
lowerneck -10.3052 -2.7818 -2.00354
upperneck 25.0819 -4.58425 4.0994
head 9.7709 -1.87191 1.24369
rclavicle 1.73937e-016 -7.95139e-016
rhumerus -49.8003 -2.00567 -86.0814
rradius 41.5439
rwrist 13.1033
rhand -4.50085 -41.8892
rfingers 7.12502
rthumb 21.2729 -70.7418
lclavicle 1.73937e-016 -7.95139e-016
lhumerus -41.9275 2.27168 89.0401
lradius 35.2855
lwrist -7.53952
lhand -7.08178 -27.0159
lfingers 7.12502
lthumb 18.7922 2.09634
rfemur 2.05458 4.38791 13.4024
rtibia -4.77083e-015
rfoot -16.0966 -10.4691
rtoes -3.23846
lfemur -6.65594 -8.05676 -13.3699
ltibia 19.7669
lfoot -22.686 13.7871
ltoes -55.361
107
root -0.635645 18.7158 5.68989 5.05549 -2.55503 -0.493913
lowerback -2.27164 1.20978 -2.74892
upperback -3.7592 1.62535 -0.0764332
thorax -2.66496 0.885448 1.45771
lowerneck -10.3221 -2.7818 -2.00681
upperneck 25.1035 -4.59228 4.13003
head 9.78308 -1.87197 1.25386
rclavicle -1.14301e-014 -2.0276e-014
rhumerus -49.7795 -2.00832 -86.0913
rradius 41.5425
rwrist 13.0592
rhand -5.89404 -41.4071
rfingers 7.12502
rthumb 19.9342 -70.4047
lclavicle -1.14301e-014 -2.0276e-014
lhumerus -41.9089 2.21727 89.0646
lradius 35.2936
lwrist -7.49139
lhand -7.07816 -27.0028
lfingers 7.12502
lthumb 18.7957 2.10909
rfemur 2.05566 4.38917 13.3911
rtibia 0
rfoot -16.1248 -10.4345
rtoes -3.32494
lfemur -6.6449 -8.15643 -13.3841
ltibia 19.7633
lfoot -22.7457 13.884
ltoes -55.3957
108
root -0.636068 18.7162 5.6912 5.0613 -2.55088 -0.504081
lowerback -2.30191 1.21302 -2.74651
upperback -3.7375 1.6311 -0.0687907
thorax -2.62593 0.887679 1.46526
lowerneck -10.2722 -2.76559 -2.03086
upperneck 25.0464 -4.57109 4.16653
head 9.75374 -1.86181 1.2736
rclavicle 1.10574e-015 -1.98785e-015
rhumerus -49.7378 -1.98167 -86.0897
rradius 41.537
rwrist 12.9829
rhand -6.75966 -41.0359
rfingers 7.12502
rthumb 19.102 -70.1179
lclavicle 1.10574e-015 -1.98785e-015
lhumerus -41.8727 2.21146 89.0856
lradius 35.3063
lwrist -7.48189
lhand -6.98954 -27.0007
lfingers 7.12502
lthumb 18.8809 2.10291
rfemur 2.05404 4.38528 13.4012
rtibia -1.59028e-015
rfoot -16.1489 -10.4178
rtoes -3.43923
lfemur -6.64833 -8.20469 -13.3762
ltibia 19.7619
lfoot -22.771 13.9533
ltoes -55.4902
109
root -0.636019 18.7156 5.69275 5.05092 -2.54774 -0.503723
lowerback -2.30672 1.21736 -2.73179
upperback -3.72116 1.63701 -0.0789126
thorax -2.60581 0.889669 1.44698
lowerneck -10.2192 -2.76031 -2.06207
upperneck 25.0074 -4.56521 4.20416
head 9.73114 -1.85916 1.29326
rclavicle -5.59082e-015 7.95139e-015
rhumerus -49.7279 -1.98323 -86.0992
rradius 41.5438
rwrist 12.9584
rhand -7.16584 -40.9123
rfingers 7.12502
rthumb 18.7113 -70.0324
lclavicle -5.59082e-015 7.95139e-015
lhumerus -41.872 2.20231 89.0883
lradius 35.3299
lwrist -7.49705
lhand -6.99325 -26.9861
lfingers 7.12502
lthumb 18.8773 2.1179
rfemur 2.07421 4.38322 13.4019
rtibia 1.11319e-014
rfoot -16.1655 -10.4157
rtoes -3.27726
lfemur -6.63409 -8.17644 -13.3825
ltibia 19.7646
lfoot -22.7484 13.9362
ltoes -55.5288
110
root -0.636603 18.715 5.69406 5.04288 -2.54031 -0.508442
lowerback -2.30045 1.21755 -2.72791
upperback -3.70978 1.6369 -0.0957366
thorax -2.59691 0.889021 1.42755
lowerneck -10.2182 -2.76052 -2.03861
upperneck 25.0291 -4.56908 4.19537
head 9.73805 -1.85946 1.28586
rclavicle 3.11719e-014 -7.95139e-016
rhumerus -49.7325 -2.00199 -86.1292
rradius 41.5756
rwrist 12.9642
rhand -7.32455 -40.9173
rfingers 7.12502
rthumb 18.5587 -70.052
lclavicle 3.11719e-014 -7.95139e-016
lhumerus -41.9012 2.10828 89.0979
lradius 35.3892
lwrist -7.39026
lhand -7.00765 -26.9633
lfingers 7.12502
lthumb 18.8635 2.14207
rfemur 2.09092 4.37734 13.4124
rtibia 0
rfoot -16.1697 -10.4329
rtoes -3.2237
lfemur -6.61879 -8.19356 -13.3785
ltibia 19.7688
lfoot -22.7515 13.9106
ltoes -55.4782
